<svg width="119" height="119" viewBox="0 0 119 119" fill="none" xmlns="http://www.w3.org/2000/svg">
<g clip-path="url(#clip0_13_82)">
<path fill-rule="evenodd" clip-rule="evenodd" d="M85.6476 60.0445C77.3491 61.907 80.7743 55.8895 83.7794 57.8915C84.6037 58.441 85.131 59.2073 85.6476 60.0445ZM66.7802 30.8773C66.2586 30.775 65.707 30.6855 65.1217 30.609L64.9378 29.9578L66.2307 29.945C66.8597 28.363 65.4637 27.4636 64.0663 27.4321C62.6689 27.4636 61.2729 28.363 61.9019 29.945L63.1948 29.9578L63.0109 30.609C62.4256 30.6848 61.874 30.7743 61.3524 30.8773V30.9159C54.4054 32.1852 49.14 38.2678 49.14 45.5811C49.14 48.6235 50.0522 51.4526 51.6164 53.8109C52.3719 53.8231 53.2048 54.1172 53.8802 54.3783C53.9589 54.4084 54.0405 54.442 54.1235 54.4771C54.1528 54.349 54.1779 54.2402 54.1958 54.1723C54.3553 53.5727 54.6151 53.0146 54.9993 52.6089C53.4903 50.6684 52.5909 48.2299 52.5909 45.5818C52.5909 39.2545 57.7204 34.125 64.0477 34.125C70.375 34.125 75.5045 39.2545 75.5045 45.5818C75.5045 51.9091 70.375 57.0393 64.0477 57.0393C63.0517 57.0393 62.0858 56.912 61.1642 56.673C60.9803 57.2569 60.7377 57.8264 60.5531 58.2851C60.2776 58.9684 59.8884 59.4621 59.4176 59.7569C60.8751 60.2327 62.4313 60.491 64.0484 60.491C68.149 60.491 71.8633 58.8346 74.5586 56.1557C73.8052 58.7602 72.9108 60.6742 72.3155 61.5256C70.1954 64.5587 66.7945 67.1224 63.876 65.4473C61.7244 64.2124 61.4125 63.2836 60.2869 61.8283C57.8363 58.6607 52.8034 62.0086 50.777 64.2803L49.3145 66.0949C48.1332 67.6375 45.8293 71.1164 47.4614 72.9323C49.2444 74.9157 55.3986 74.1086 57.2067 76.0327C55.8393 77.4644 48.828 80.2613 46.0647 80.8817C43.6827 81.4169 41.4353 81.6394 39.0569 80.9912C35.0028 79.8857 32.4456 76.8068 31.5834 72.586C30.2168 65.8988 36.2972 59.6331 41.3587 55.6291C43.5411 53.9025 46.2436 51.9349 48.7328 50.5961C49.0262 50.4387 45.2547 51.6115 43.0037 52.8915C34.6851 57.6218 31.9869 62.1545 30.8879 65.9489C29.3724 71.1815 29.2923 77.0215 32.5422 81.3081C33.1003 82.0437 34.0297 82.8887 34.8254 83.4332C36.006 84.2418 37.1887 84.7798 38.9002 85.1197C44.4684 86.2266 55.1367 81.9128 57.9243 78.1964C58.2585 77.7506 58.7965 76.9249 59.0255 76.3689C59.711 74.7054 59.7138 73.0969 58.3436 72.1996C57.47 71.6272 55.01 71.1908 53.7507 70.9167C52.9608 70.745 52.1523 70.5847 51.3294 70.4059C50.4794 70.2213 49.8068 69.9315 49.1772 69.7705C49.555 69.0106 50.0501 68.4747 50.5674 68.0218C51.2629 67.4121 51.2157 67.3549 52.1365 66.6659C53.6105 65.564 57.5837 62.4894 59.3682 64.0542C59.7639 64.4013 60.6519 65.886 61.0712 66.4018C62.8678 68.6121 64.9135 68.7809 65.8801 68.6657C61.5463 82.7835 73.6606 80.1325 81.3953 74.8206C84.7475 72.5188 87.84 69.9036 88.8352 65.7793C89.8727 61.4777 87.948 55.1583 85.1053 53.7294C82.6661 52.5037 80.7836 54.7103 80.0108 56.1786C79.1543 57.8049 78.0009 60.6355 79.0728 62.6926C80.2519 64.9558 83.4167 63.6958 86.0254 63.9827C87.3513 64.1286 87.9351 65.2499 87.1352 66.3446C86.4869 67.2311 84.8563 68.5505 83.876 69.2839C83.4818 69.5794 83.046 69.8749 82.6833 70.1261C80.2033 71.8448 77.8979 73.4189 75.1045 74.8306C67.5294 78.6593 65.8587 74.925 67.0235 68.547C70.2927 67.6125 72.5988 65.6391 74.2702 63.4453C76.5263 60.4838 79.1694 51.7588 78.9561 45.584C78.9561 38.2829 73.7078 32.2089 66.7788 30.9259V30.8809L66.7802 30.8773ZM62.787 43.929C62.2754 44.3132 61.9441 44.9257 61.9441 45.6147C61.9441 46.7782 62.8878 47.7219 64.0513 47.7219C64.7797 47.7219 65.4215 47.352 65.8 46.7903L71.6135 45.6147L65.7993 44.4391C65.6676 44.2431 65.503 44.0706 65.3149 43.929L64.0506 35.2205L62.7862 43.929H62.787ZM43.2355 89.5387C45.0859 90.212 45.5338 92.6648 46.8546 91.0348C47.2338 90.5669 48.3064 89.2933 48.3357 88.7724C48.3829 87.9324 46.114 86.5478 45.7255 86.3776C44.736 85.9425 44.326 88.1384 43.3479 88.7702C42.9043 88.5305 41.1434 86.8061 40.2497 86.6273C39.9277 86.4677 37.7797 89.2496 38.0695 89.792C38.1275 90.3494 40.8751 91.9285 40.8972 91.9328C41.9705 92.1553 42.5715 90.1311 43.2348 89.5387H43.2355ZM55.1717 57.3198C57.138 57.42 58.2871 59.6331 59.0706 57.6862C59.296 57.1273 59.9464 55.5947 59.8219 55.0888C59.6201 54.2717 57.0442 53.6156 56.6235 53.5662C55.5495 53.441 55.8028 55.6605 55.0544 56.5521C54.56 56.4533 52.3698 55.3221 51.4632 55.4144C51.1083 55.3564 49.8726 58.6464 50.3091 59.08C50.5281 59.5959 53.6184 60.2978 53.6413 60.2956C54.7324 60.1926 54.7124 58.0811 55.1725 57.3205L55.1717 57.3198ZM59.6551 29.2416C59.5535 23.7966 47.4671 29.7017 52.2646 33.9247C54.1629 31.733 56.7201 30.1231 59.6551 29.2416ZM68.4746 29.296C68.5061 23.8502 80.6677 29.5994 75.9245 33.8839C73.9983 31.7166 71.4203 30.1396 68.4746 29.296Z" fill="#2563EB"/>
</g>
<defs>
<clipPath id="clip0_13_82">
<rect width="119" height="119" fill="white"/>
</clipPath>
</defs>
</svg>
