<?xml version='1.0' encoding='UTF-8'?>
<svg xmlns="http://www.w3.org/2000/svg" xmlns:xlink="http://www.w3.org/1999/xlink" xmlns:xodm="http://www.corel.com/coreldraw/odm/2003" xml:space="preserve" width="23.8602cm" height="17.6417cm" version="1.1" style="shape-rendering:geometricPrecision; text-rendering:geometricPrecision; image-rendering:optimizeQuality; fill-rule:evenodd; clip-rule:evenodd" viewBox="0 0 4408.21 3259.33" >
 <defs>
  <filter id="dropShadow" x="5" y="5" width="200%" height="200%" filterUnits="userSpaceOnUse" color-interpolation-filters="sRGB">
    <feGaussianBlur in="SourceAlpha" stdDeviation="3"/>
      <feOffset dx="2" dy="2" result="offsetblur"/>
      <feComponentTransfer>
      <feFuncA type="linear" slope="0.5"/>
    </feComponentTransfer>
      <feMerge>
      <feMergeNode/>
  <feMergeNode in="SourceGraphic"/>
    </feMerge>
  </filter>
</defs>
<g id="Layer_x0020_1" >
<polygon fill="#808080" points="1472.84,1016.78 1454.82,1016.78 1454.82,861.98 1472.84,861.98 "/>
<polygon fill="#808080" points="1472.84,1239.24 1454.82,1239.24 1454.82,1084.45 1472.84,1084.45 "/>
<path d="M2206.64 920.36l0 -239.58 -653.99 0c-44.08,0 -79.81,35.73 -79.81,79.81l0 1887.68c0,44.08 35.73,79.81 79.81,79.81l653.99 0 0 -239.58 -678.86 0 0 -1568.14 678.86 0z" fill="#808080"/>
<polygon fill="#808080" points="2206.64,2488.5 1527.78,2488.5 1527.78,920.36 2206.64,920.36 "/>
<path d="M2206.64 818.12l-261.7 0c-8.92,0 -16.17,-7.26 -16.17,-16.17 0,-8.92 7.25,-16.17 16.17,-16.17l261.7 0 0 3.26 -261.7 0c-7.12,0 -12.91,5.79 -12.91,12.91 0,7.12 5.79,12.91 12.91,12.91l261.7 0 0 3.26z" fill="#808080"/>
<path d="M2206.64 2631.44l-262.07 0c-10.49,0 -19.02,-8.54 -19.02,-19.03l0 -6.83c0,-10.5 8.54,-19.03 19.02,-19.03l262.07 0 0 3.26 -262.07 0c-8.69,0 -15.76,7.08 -15.76,15.77l0 6.83c0,8.69 7.07,15.77 15.76,15.77l262.07 0 0 3.26z" fill="#808080"/>
<polygon fill="#808080" points="2206.64,816.48 2206.64,787.4 "/>
<polygon fill="#808080" points="2206.64,1084.45 1613.81,1084.45 1613.81,920.36 2206.64,920.36 "/>
<polygon fill="#808080" points="2206.64,1202.7 1613.81,1202.7 1613.81,1199.45 2206.64,1199.45 "/>
<polygon fill="#808080" points="2206.64,1326.4 1613.81,1326.4 1613.81,1323.14 2206.64,1323.14 "/>
<polygon fill="#808080" points="1991.29,1285.17 1613.81,1285.17 1613.81,1281.91 1991.29,1281.91 "/>
<polygon fill="#808080" points="2206.64,1243.93 1613.81,1243.93 1613.81,1240.67 2206.64,1240.67 "/>
<path d="M1654.88 1114.54c-6.42,0 -11.78,4.32 -13.48,10.19 -1.71,-5.87 -7.06,-10.19 -13.48,-10.19 -7.79,0 -14.1,6.31 -14.1,14.1 0,13.24 27.58,30.55 27.58,30.55 0,0 27.58,-17.81 27.58,-30.55 0,-7.79 -6.31,-14.1 -14.1,-14.1z" fill="#808080"/>
<polygon fill="#808080" points="2206.64,2277.03 1613.81,2277.03 1613.81,2273.78 2206.64,2273.78 "/>
<polygon fill="#808080" points="2206.64,2318.27 1613.81,2318.27 1613.81,2315.01 2206.64,2315.01 "/>
<path d="M1654.88 2188.87c-6.42,0 -11.78,4.32 -13.48,10.19 -1.71,-5.87 -7.06,-10.19 -13.48,-10.19 -7.79,0 -14.1,6.31 -14.1,14.1 0,13.24 27.58,30.55 27.58,30.55 0,0 27.58,-17.81 27.58,-30.55 0,-7.79 -6.31,-14.1 -14.1,-14.1z" fill="#808080"/>
<polygon fill="#808080" points="2206.64,2150.12 1613.81,2150.12 1613.81,1614.91 2206.64,1614.91 "/>
<path d="M1754.74 1497.32c0,38.92 -31.55,70.46 -70.47,70.46 -38.92,0 -70.46,-31.55 -70.46,-70.46 0,-38.92 31.55,-70.46 70.46,-70.46 38.92,0 70.47,31.55 70.47,70.46z" fill="#808080"/>
<polygon fill="#808080" points="2206.64,1477.94 1803.21,1477.94 1803.21,1474.69 2206.64,1474.69 "/>
<polygon fill="#808080" points="1965.75,1522.16 1803.21,1522.16 1803.21,1518.91 1965.75,1518.91 "/>
<path d="M1754.71 2488.5c0.01,-0.16 0.03,-0.33 0.03,-0.49 0,-38.64 -31.55,-69.97 -70.47,-69.97 -38.92,0 -70.46,31.33 -70.46,69.97 0,0.17 0.01,0.33 0.02,0.49l140.88 0z" fill="#808080"/>
<polygon fill="#808080" points="2206.64,2469.12 1803.21,2469.12 1803.21,2465.86 2206.64,2465.86 "/>
<path d="M829.78 2032.74c-7.31,-11.94 -25.15,-47.85 -77.13,-85.07 -1.75,-0.98 -4.15,-1.04 -5.61,1.08 -8.73,22.63 28.28,43.14 23.73,51.8 0,0 -35.85,-20.81 -66.18,-37.83 -0.09,17.25 -3.98,34.77 -6.29,51.54 -3.13,22.65 -5.95,45.3 -7.87,68.06 20.39,14.89 44.2,30.08 61.17,34.13 6.95,1.66 60.61,24.7 85.29,-14.63 14.85,-23.67 3.93,-51.04 -7.11,-69.08z" fill="#808080"/>
<path d="M834.74 2051.82c0,0 250.65,266.04 256.61,272.28 5.95,6.24 28.45,16.09 34.76,32.87 16.08,44.05 -5.96,93.24 -49.13,109.65 -35.03,13.32 -53.81,-3.05 -75.78,-33.84l-227.27 -310.47 60.82 -70.5z" fill="#808080"/>
<path d="M779.78 2124.16c-3.5,0 -5.75,-0.21 -6.02,-0.23l0.31 -3.25c0.18,0.01 18.37,1.64 33.81,-4.83l1.26 3c-10.75,4.51 -22.47,5.3 -29.36,5.3z" fill="#808080"/>
<polygon fill="#808080" points="751.39,2124.53 643.86,2124.53 632.87,1928.99 762.39,1928.99 "/>
<polygon fill="#808080" points="633.39,1938.34 632.87,1928.99 762.39,1928.99 762.09,1934.18 "/>
<polygon fill="#808080" points="758.49,2059.89 763.33,1973.83 631.93,1973.83 636.77,2059.89 "/>
<polygon fill="#808080" points="631.47,1913.23 628.94,1928.99 766.32,1928.99 763.79,1913.23 "/>
<polygon fill="#808080" points="750.49,1894.45 744.07,1894.45 667.19,1894.45 644.39,1894.45 640.89,1916.26 667.15,1916.26 744.04,1916.26 753.99,1916.26 "/>
<polygon fill="#808080" points="753.5,1914.87 641.37,1914.87 641.37,1911.61 753.5,1911.61 "/>
<path d="M712.16 2049.1c-16.54,0 -29.99,-14.46 -29.99,-32.23 0,-17.77 13.45,-32.23 29.99,-32.23 16.54,0 29.99,14.46 29.99,32.23 0,17.77 -13.45,32.23 -29.99,32.23zm0 -61.2l0 0c-14.73,0 -26.73,13 -26.73,28.97 0,15.98 11.99,28.97 26.73,28.97 14.74,0 26.73,-13 26.73,-28.97 0,-15.98 -11.99,-28.97 -26.73,-28.97z" fill="#808080"/>
<path d="M782.22 1982.41c1.73,-1.85 3.27,-3.93 4.7,-6.09 -9.37,-9.19 -20.62,-18.86 -34.27,-28.64 -1.75,-0.98 -4.15,-1.04 -5.61,1.08 -6.37,16.52 11.58,31.88 20,42.36 5.8,-0.75 11.07,-4.3 15.18,-8.7z" fill="#808080"/>
<polygon fill="#808080" points="1045.12,2136.96 1188.5,2232.43 1268.74,2111.92 1125.37,2016.45 "/>
<path d="M1095.14 2051.21c0,0 66.31,-147.12 160.26,-199.19 125.2,-69.42 213.39,39.53 144.79,143.7 0,0 -64.47,100.32 -141.27,195.96 -45.87,7.54 -169.35,-131.96 -163.78,-140.47z" fill="#808080"/>
<polygon fill="#808080" points="364.54,2530.22 314.62,2588.46 378.08,2649.41 487,2580.61 465.66,2511.91 "/>
<path d="M311.24 2579.66c0,0 -49.36,56.46 -88.5,66.63 -39.14,10.17 -95.67,20.94 -95.05,81.36l359.31 0c-2.41,-56.53 -10.49,-102.73 -30.77,-126.67 -22.6,2.55 -41.66,2.39 -57.79,-0.03 -16.35,-6.35 -65.91,-37.94 -87.2,-21.29z" fill="#808080"/>
<path d="M436.14 2622.48c-21.57,0 -38.76,-3.02 -39,-3.07l0.57 -3.21c0.34,0.06 35.22,6.19 67.68,0.81l0.54 3.22c-10.06,1.66 -20.34,2.24 -29.78,2.24z" fill="#808080"/>
<path d="M132.51 2727.65l-3.26 0 0 -23.48c2.29,-14.18 11.74,-26.31 28.13,-36.32l1.69 2.77c-15.54,9.5 -24.48,20.87 -26.58,33.8l0.02 23.22z" fill="#808080"/>
<path d="M317.99 2612.05c-0.09,-0.09 -8.93,-9.36 -25.62,-11.42l0.4 -3.23c17.94,2.2 27.22,12.02 27.61,12.44l-2.39 2.22z" fill="#808080"/>
<path d="M308.41 2620.44c-0.09,-0.09 -8.92,-9.37 -25.61,-11.42l0.4 -3.23c17.94,2.2 27.22,12.02 27.6,12.44l-2.39 2.22z" fill="#808080"/>
<path d="M298.55 2628.9c-0.09,-0.09 -8.93,-9.36 -25.62,-11.42l0.4 -3.23c17.94,2.2 27.22,12.02 27.61,12.44l-2.39 2.22z" fill="#808080"/>
<polygon fill="#808080" points="127.69,2727.65 487,2727.65 487,2704.17 127.69,2704.17 "/>
<path d="M272.08 2687.58c-7.5,-6.33 -11.36,-13.19 -11.47,-20.39 -0.17,-10.53 7.75,-17.78 8.09,-18.08l62.03 -48.14 2 2.57 -61.94 48.07c0.01,0 -7.08,6.54 -6.92,15.56 0.11,6.21 3.58,12.25 10.32,17.92l-2.1 2.5z" fill="#808080"/>
<path d="M456.85 2704.21c-0.96,-43.45 19.89,-53.29 20.78,-53.69l1.34 2.97c-0.2,0.09 -19.77,9.55 -18.86,50.64l-3.26 0.08z" fill="#808080"/>
<path d="M1195.07 2394.62l186.53 252.97c0,0 -56.22,80.49 -175.04,79.21 -118.82,-1.28 -185.26,-90.71 -185.26,-90.71l-236.92 -266.7 -301.43 313.99 -143.91 -143.11 374.35 -428.01c51.58,-52.86 121.53,-45.68 177.59,0l304.07 282.35z" fill="#808080"/>
<polygon fill="#808080" points="435.26,2530.22 385.34,2588.46 448.81,2649.41 557.72,2580.61 536.38,2511.91 "/>
<path d="M381.96 2579.66c0,0 -49.36,56.46 -88.5,66.63 -39.14,10.17 -95.67,20.94 -95.05,81.36l359.31 0c-2.41,-56.53 -10.49,-102.73 -30.77,-126.67 -22.6,2.55 -41.66,2.39 -57.79,-0.03 -16.35,-6.35 -65.91,-37.94 -87.2,-21.29z" fill="#808080"/>
<path d="M506.86 2622.48c-21.56,0 -38.76,-3.02 -39,-3.07l0.57 -3.21c0.35,0.06 35.22,6.19 67.67,0.81l0.53 3.22c-10.06,1.66 -20.34,2.24 -29.78,2.24z" fill="#808080"/>
<path d="M318.85 2660.77c-19.95,-14.43 -48.42,-6.78 -48.72,-6.68l-0.87 -3.14c1.24,-0.33 30.27,-8.17 51.5,7.19l-1.91 2.63z" fill="#808080"/>
<path d="M203.23 2727.65l-3.26 0 0 -23.48c2.29,-14.18 11.74,-26.31 28.13,-36.32l1.69 2.77c-15.53,9.49 -24.47,20.86 -26.58,33.8l0.02 23.22z" fill="#808080"/>
<path d="M388.71 2612.05c-0.09,-0.09 -8.92,-9.37 -25.61,-11.42l0.4 -3.23c17.94,2.2 27.22,12.02 27.6,12.44l-2.39 2.22z" fill="#808080"/>
<path d="M379.14 2620.44c-0.09,-0.09 -8.93,-9.36 -25.62,-11.42l0.4 -3.23c17.94,2.2 27.22,12.02 27.61,12.44l-2.39 2.22z" fill="#808080"/>
<path d="M369.27 2628.9c-0.09,-0.09 -8.92,-9.37 -25.61,-11.42l0.4 -3.23c17.94,2.2 27.22,12.02 27.6,12.44l-2.39 2.22z" fill="#808080"/>
<polygon fill="#808080" points="198.41,2727.65 557.72,2727.65 557.72,2704.17 198.41,2704.17 "/>
<path d="M342.81 2687.58c-7.5,-6.33 -11.37,-13.19 -11.48,-20.39 -0.17,-10.53 7.75,-17.78 8.09,-18.08l62.04 -48.14 2 2.57 -61.95 48.07c0.01,0 -7.08,6.54 -6.92,15.56 0.11,6.21 3.58,12.25 10.32,17.92l-2.1 2.5z" fill="#808080"/>
<path d="M527.58 2704.21c-0.97,-43.45 19.88,-53.29 20.77,-53.69l1.34 2.97c-0.2,0.09 -19.77,9.55 -18.85,50.64l-3.26 0.08z" fill="#808080"/>
<path d="M1257.32 2388.66c17.98,90.11 87.44,176.06 195.02,258.94 0,0 -56.22,80.49 -175.04,79.21 -118.82,-1.28 -185.26,-90.71 -185.26,-90.71l-236.92 -266.7 -301.43 313.99 -143.91 -143.11 374.34 -428.01c51.58,-52.86 121.54,-45.68 177.59,0l295.59 276.39z" fill="#808080"/>
<polygon fill="#808080" points="855.19,2374 831.94,2314.54 834.97,2313.35 855.09,2364.79 867.38,2331.27 870.44,2332.39 "/>
<polygon fill="#808080" points="579.6,2656.29 438.56,2507.16 440.92,2504.92 581.97,2654.05 "/>
<path d="M1124.69 1533.01c0,0 -22.98,26.24 -22.41,27.75 -0.63,13.95 7.25,58.4 49.11,97.96 47.27,44.67 3.09,-105.33 3.09,-105.33l-29.79 -20.38z" fill="#808080"/>
<path d="M1121.81 1562.29c12.36,41.46 12.36,251.55 106.4,253.63 5.86,0.53 21.83,-2.2 28.77,-4.04 -1.45,24.44 -2.56,75.91 -2.56,75.91 107.22,41.93 147.73,-23.1 148.14,-84.45l-9.41 -120.02 -50.93 -136.74 -86.1 -49.22 -80.4 31.71 -39.35 30.44c-0.93,0.17 -16.44,-17.81 -14.56,2.77z" fill="#808080"/>
<path d="M1373.13 1503.69c-11.95,-23.8 -25.53,-39.25 -52.1,-53.82 -20.93,-9.01 -43.96,-11.15 -66.47,-8.66 -24.85,2.74 -48.94,10.58 -71.96,20.1 -14.46,5.99 -28.57,12.78 -42.49,19.91 -10.93,-26.26 -92.19,-19.88 -81.65,44.46 7.22,29.38 32.16,60.6 74.71,60.55 72.68,-0.36 156.6,-36.77 156.6,-36.77 6.19,43.04 12.23,86.84 26.7,87.36 -2.65,-16.72 3.02,-25.44 13.9,-31.2 37.87,-15.44 61.2,32.68 22.59,71.86 11.76,9.65 25.48,12.39 41.3,7.72 43.56,-100.09 28.88,-165.42 -21.13,-181.51z" fill="#808080"/>
<path d="M1194.95 1708.1c-2.58,-0.84 -15.61,-5.22 -18.48,-8.66 -2.82,-3.39 4.4,-33.33 8.95,-50.87l3.16 0.81c-5.57,21.42 -10.64,45.28 -9.51,48.12 1.66,1.95 11.25,5.66 16.89,7.5l-1.01 3.09z" fill="#808080"/>
<path d="M1195.2 1736c-11.33,0 -19.98,-3.3 -20.61,-3.55l1.18 -3.03c0.26,0.1 26.28,9.99 46.65,-5.31l1.96 2.61c-9.64,7.22 -20.25,9.27 -29.18,9.27z" fill="#808080"/>
<path d="M1225.05 1654.15c2.04,3.31 6.38,4.34 9.69,2.3 3.31,-2.04 4.34,-6.38 2.3,-9.69 -2.04,-3.31 -6.38,-4.34 -9.69,-2.3 -3.31,2.04 -4.34,6.38 -2.3,9.69z" fill="#808080"/>
<path d="M1148.23 1661.69c2.04,3.31 6.38,4.34 9.69,2.3 3.31,-2.04 4.34,-6.38 2.3,-9.69 -2.04,-3.31 -6.38,-4.34 -9.69,-2.3 -3.31,2.04 -4.34,6.38 -2.3,9.69z" fill="#808080"/>
<path d="M1215.12 1632.46l-1.22 -3.02c8.57,-3.46 18.15,-3.73 28.46,-0.79l-0.89 3.13c-9.6,-2.74 -18.46,-2.51 -26.34,0.68z" fill="#808080"/>
<path d="M1139.28 1642.23l-1.58 -2.85c7.56,-4.17 15.53,-5.88 23.71,-5.12l-0.3 3.24c-7.59,-0.67 -14.74,0.83 -21.82,4.73z" fill="#808080"/>
<path d="M1257.3 1813.47l-0.64 -3.19c53.47,-10.67 67.46,-67.85 67.6,-68.42l3.17 0.74c-0.14,0.6 -14.63,59.8 -70.13,70.88z" fill="#808080"/>
<path d="M1343.37 1666.24l-2.19 -2.41c14.6,-13.28 17.33,-28.49 12.48,-36.64 -3.98,-6.71 -12.56,-8.35 -23.54,-4.54l-1.07 -3.07c12.35,-4.3 22.62,-2.1 27.41,5.95 5.53,9.29 2.81,26.26 -13.09,40.71z" fill="#808080"/>
<path d="M1339.52 1653l-3.22 -0.5c0.06,-0.4 1.62,-9.59 20.43,-10.6l0.18 3.26c-15.9,0.85 -17.38,7.77 -17.39,7.84z" fill="#808080"/>
<path d="M1244.83 2398.76c37.19,118.48 91.2,222.7 175.56,301.2 15.11,-12.4 28.59,-26.89 34.95,-50.55l-191.38 -266.47 -19.13 15.81z" fill="#808080"/>
<path d="M1406.35 1797.97c0,0 176.31,69.63 182.7,256.17 0.21,329.63 -111.17,579.91 -111.17,579.91 -5.85,14.42 -14.6,18.05 -25.53,13.55 -90.41,-57.32 -183.87,-189.23 -278.03,-337.93 0,0 -1.92,-308.07 7.81,-352.79 9.72,-44.72 72.03,-89.1 72.03,-89.1 61.38,17.41 110.43,-25.43 152.19,-69.8z" fill="#808080"/>
<path d="M1178.56 2145.45l-3.26 -0.21c4.66,-75.76 14.65,-154.33 24.85,-195.5l3.16 0.79c-10.16,41 -20.11,119.33 -24.75,194.92z" fill="#808080"/>
<path d="M1031.27 2198.44c-3.44,0 -5.61,-0.47 -5.83,-0.52l0.71 -3.18c0.11,0.04 12.6,2.66 26.19,-5.79l1.72 2.76c-8.99,5.6 -17.43,6.73 -22.79,6.73z" fill="#808080"/>
<path d="M961.88 2006.92l-97.18 0c-4.61,0 -8.38,-4.37 -8.38,-9.71l-30.83 -218.83c0,-5.34 3.77,-9.71 8.38,-9.71l97.18 0c4.61,0 8.38,4.37 8.38,9.71l30.83 218.83c0,5.34 -3.77,9.71 -8.38,9.71z" fill="#808080"/>
<path d="M939.43 2008.55l0 -3.26c10.91,0 19.79,-10.39 19.79,-23.18l-30.81 -195.66c-0.02,-10.95 -5.14,-16.15 -15.68,-16.15l0 -3.26c12.2,0 18.92,6.8 18.92,19.16l30.81 195.66c0.02,14.83 -10.32,26.69 -23.03,26.69z" fill="#808080"/>
<path d="M1284.64 1989.47c0.29,0.21 0.57,0.44 0.85,0.66 15.59,11.66 31.68,22.65 47.34,34.22 17.39,12.85 34.41,26.19 51.55,39.37 17.01,13.07 34.14,26 51.84,38.12 4.98,3.41 10.02,6.72 15.09,9.97 -65.13,101.79 -169.28,260.88 -193.99,276.84 -85.72,76.73 -169.19,-17.87 -133.17,-95.35 12.02,-44.06 91.77,-196.58 160.49,-303.84z" fill="#808080"/>
<path d="M995.42 1993.38c-22.92,-29.28 -83.17,-9.8 -60.1,38.45 0,0 130.68,306.7 194.88,358.6 62.83,57.9 165.43,17.99 120.76,-93.57 -11.38,-42.07 -255.54,-303.47 -255.54,-303.47z" fill="#808080"/>
<path d="M1193.71 2134.88c0,0 55.92,-157.11 147.68,-218.23 122.27,-81.49 221.05,24.09 159.35,137.03 0,0 -57.79,108.64 -128.55,213.4 -46.23,11.38 -183.49,-122.98 -178.48,-132.2z" fill="#808080"/>
<path d="M1373.54 2267.99l-2.7 -1.82c69.89,-103.49 127.88,-212.18 128.46,-213.26l2.88 1.53c-0.58,1.09 -58.65,109.91 -128.63,213.55z" fill="#808080"/>
<path d="M1195.24 2135.42l-3.07 -1.1c0.14,-0.39 14.31,-39.93 39.53,-86.42 23.31,-42.97 61.11,-100.85 108.78,-132.61 50.38,-33.57 102.72,-38.37 140.02,-12.82l-1.85 2.69c-36.15,-24.77 -87.14,-19.97 -136.37,12.84 -47.11,31.38 -84.57,88.78 -107.7,131.41 -25.1,46.27 -39.22,85.61 -39.35,86.01z" fill="#808080"/>
<polygon fill="#808080" points="1222.87,2257.14 1169.47,2189.97 1172.02,2187.95 1225.41,2255.12 "/>
<polygon fill="#808080" points="1169.53,2190.04 1079.65,2088.89 1082.08,2086.73 1171.96,2187.88 "/>
<path d="M825.48 1881.51c-2.98,-4.54 1.46,-33.87 11.61,-24.51 0,0 62.03,64.65 84.5,71.22 29.14,9.8 30.1,-27.64 30.1,-27.64l1.43 -14.4c0.96,-9.63 39.07,46.03 42.45,62.52l13.48 38.12c8.9,26.84 -12.83,74.37 -49.51,66.2 0,0 -73.75,-18.47 -98.86,-31.86 -25.11,-13.4 -46.01,-62.26 -46.01,-62.26 -5.24,-9.48 -3.55,-32.07 1.74,-24.94 -8.26,-10.8 -1.42,-25.2 6.76,-24.51 -8.19,-8.62 -3.51,-25.95 2.31,-27.93z" fill="#808080"/>
<path d="M886.18 1942.12c-22.91,-17.22 -43.76,-37.27 -61.96,-59.58l2.52 -2.06c18.04,22.11 38.69,41.97 61.39,59.03l-1.96 2.61z" fill="#808080"/>
<path d="M858.11 1986.26c-15.61,-13.98 -30.16,-31.2 -44.48,-52.63l2.71 -1.81c14.17,21.2 28.54,38.21 43.94,52.01l-2.18 2.43z" fill="#808080"/>
<path d="M871.76 1962.04c-20.44,-16.29 -36.99,-33.42 -50.58,-52.35l2.65 -1.9c13.42,18.69 29.76,35.6 49.97,51.7l-2.04 2.55z" fill="#808080"/>
<path d="M989.28 2023.78l-2.32 -2.29c14.49,-14.58 18.38,-40.49 18.42,-40.75l3.22 0.47c-0.16,1.1 -4.07,27.22 -19.33,42.58z" fill="#808080"/>
<polygon fill="#808080" points="1150.2,887.88 796.68,887.88 796.68,793.32 1150.2,793.32 "/>
<polygon fill="#808080" points="1150.2,887.88 796.68,887.88 796.68,1179.38 1150.2,1179.38 "/>
<path d="M822.14 813.32c-3.88,0 -7.06,-3.18 -7.06,-7.06l0 -25.88c0,-3.88 3.18,-7.06 7.06,-7.06 3.88,0 7.06,3.18 7.06,7.06l0 25.88c0,3.89 -3.18,7.06 -7.06,7.06z" fill="#808080"/>
<path d="M882.66 813.32c-3.88,0 -7.06,-3.18 -7.06,-7.06l0 -25.88c0,-3.88 3.18,-7.06 7.06,-7.06 3.89,0 7.06,3.18 7.06,7.06l0 25.88c0,3.89 -3.18,7.06 -7.06,7.06z" fill="#808080"/>
<path d="M943.18 813.32c-3.89,0 -7.06,-3.18 -7.06,-7.06l0 -25.88c0,-3.88 3.18,-7.06 7.06,-7.06 3.88,0 7.06,3.18 7.06,7.06l0 25.88c0,3.89 -3.18,7.06 -7.06,7.06z" fill="#808080"/>
<path d="M1003.7 813.32c-3.88,0 -7.06,-3.18 -7.06,-7.06l0 -25.88c0,-3.88 3.18,-7.06 7.06,-7.06 3.89,0 7.06,3.18 7.06,7.06l0 25.88c0,3.89 -3.18,7.06 -7.06,7.06z" fill="#808080"/>
<path d="M1064.22 813.32c-3.89,0 -7.06,-3.18 -7.06,-7.06l0 -25.88c0,-3.88 3.18,-7.06 7.06,-7.06 3.88,0 7.06,3.18 7.06,7.06l0 25.88c0,3.89 -3.18,7.06 -7.06,7.06z" fill="#808080"/>
<path d="M1124.74 813.32c-3.88,0 -7.06,-3.18 -7.06,-7.06l0 -25.88c0,-3.88 3.18,-7.06 7.06,-7.06 3.88,0 7.06,3.18 7.06,7.06l0 25.88c0,3.89 -3.18,7.06 -7.06,7.06z" fill="#808080"/>
<polygon fill="#808080" points="913.62,945.05 946.48,945.05 946.48,912.19 913.62,912.19 "/>
<polygon fill="#808080" points="958.19,945.05 991.05,945.05 991.05,912.19 958.19,912.19 "/>
<polygon fill="#808080" points="1002.75,945.05 1035.61,945.05 1035.61,912.19 1002.75,912.19 "/>
<polygon fill="#808080" points="1047.32,945.05 1080.18,945.05 1080.18,912.19 1047.32,912.19 "/>
<polygon fill="#808080" points="1091.88,912.19 1091.88,945.05 1124.74,945.05 1124.74,912.19 "/>
<polygon fill="#808080" points="824.5,997.12 857.36,997.12 857.36,964.26 824.5,964.26 "/>
<polygon fill="#808080" points="869.06,997.12 901.92,997.12 901.92,964.26 869.06,964.26 "/>
<polygon fill="#808080" points="913.62,997.12 946.48,997.12 946.48,964.26 913.62,964.26 "/>
<polygon fill="#808080" points="958.19,997.12 991.05,997.12 991.05,964.26 958.19,964.26 "/>
<polygon fill="#808080" points="1002.75,997.12 1035.61,997.12 1035.61,964.26 1002.75,964.26 "/>
<polygon fill="#808080" points="1047.32,997.12 1080.18,997.12 1080.18,964.26 1047.32,964.26 "/>
<polygon fill="#808080" points="1091.88,997.12 1124.74,997.12 1124.74,964.26 1091.88,964.26 "/>
<polygon fill="#808080" points="824.5,1049.19 857.36,1049.19 857.36,1016.34 824.5,1016.34 "/>
<polygon fill="#808080" points="869.06,1049.19 901.92,1049.19 901.92,1016.34 869.06,1016.34 "/>
<polygon fill="#808080" points="913.62,1049.19 946.48,1049.19 946.48,1016.34 913.62,1016.34 "/>
<polygon fill="#808080" points="958.19,1049.19 991.05,1049.19 991.05,1016.34 958.19,1016.34 "/>
<polygon fill="#808080" points="1002.75,1049.19 1035.61,1049.19 1035.61,1016.34 1002.75,1016.34 "/>
<polygon fill="#808080" points="1047.32,1049.19 1080.18,1049.19 1080.18,1016.34 1047.32,1016.34 "/>
<polygon fill="#808080" points="1091.88,1049.19 1124.74,1049.19 1124.74,1016.34 1091.88,1016.34 "/>
<polygon fill="#808080" points="824.5,1101.27 857.36,1101.27 857.36,1068.41 824.5,1068.41 "/>
<polygon fill="#808080" points="869.06,1101.27 901.92,1101.27 901.92,1068.41 869.06,1068.41 "/>
<polygon fill="#808080" points="913.62,1101.27 946.48,1101.27 946.48,1068.41 913.62,1068.41 "/>
<polygon fill="#808080" points="958.19,1101.27 991.05,1101.27 991.05,1068.41 958.19,1068.41 "/>
<polygon fill="#808080" points="1002.75,1101.27 1035.61,1101.27 1035.61,1068.41 1002.75,1068.41 "/>
<polygon fill="#808080" points="1047.32,1101.27 1080.18,1101.27 1080.18,1068.41 1047.32,1068.41 "/>
<polygon fill="#808080" points="1091.88,1101.27 1124.74,1101.27 1124.74,1068.41 1091.88,1068.41 "/>
<polygon fill="#808080" points="824.5,1153.34 857.36,1153.34 857.36,1120.48 824.5,1120.48 "/>
<polygon fill="#808080" points="869.06,1153.34 901.92,1153.34 901.92,1120.48 869.06,1120.48 "/>
<polygon fill="#808080" points="913.62,1153.34 946.48,1153.34 946.48,1120.48 913.62,1120.48 "/>
<polygon fill="#808080" points="958.19,1153.34 991.05,1153.34 991.05,1120.48 958.19,1120.48 "/>
<path d="M361.14 783.8l-321.39 0c-13.87,0 -25.21,-11.35 -25.21,-25.21l0 -213.13c0,-13.87 11.35,-25.21 25.21,-25.21l321.39 0c13.87,0 25.21,11.35 25.21,25.21l0 213.13c0,13.87 -11.35,25.21 -25.21,25.21z" fill="#808080"/>
<path d="M200.44 669.81c-13.07,0 -26.14,-4.45 -36.32,-13.36l-144.43 -126.36 2.15 -2.45 144.43 126.37c19.16,16.76 49.19,16.76 68.35,0l144.43 -126.37 2.15 2.45 -144.43 126.36c-10.18,8.91 -23.26,13.36 -36.33,13.36z" fill="#808080"/>
<polygon fill="#808080" points="25.88,779.61 23.32,777.59 138.11,631.64 140.67,633.65 "/>
<polygon fill="#808080" points="374.73,779.61 259.94,633.65 262.5,631.64 377.29,777.59 "/>
<path d="M416.03 540.8c0,27.74 -22.49,50.22 -50.22,50.22 -27.74,0 -50.22,-22.49 -50.22,-50.22 0,-27.74 22.49,-50.22 50.22,-50.22 27.74,0 50.22,22.49 50.22,50.22z" fill="#808080"/>
<path d="M337.25 554.01l8.86 0 0 -22.54c0,-1.37 0.06,-2.75 0.06,-2.75l-0.11 0c0,0 -0.52,0.97 -1.83,2.29l-3.26 3.09 -4.35 -4.58 10.18 -9.78 6.46 0 0 34.26 8.81 0 0 6.35 -24.82 0 0 -6.35z" fill="#808080"/>
<path d="M367.68 539.99c0,-11.67 3.66,-20.93 14.76,-20.93 11.1,0 14.7,9.27 14.7,20.93 0,11.67 -3.61,21.05 -14.7,21.05 -11.1,0 -14.76,-9.38 -14.76,-21.05zm21.91 0l0 0c0,-7.89 -1.6,-14.13 -7.15,-14.13 -5.55,0 -7.15,6.24 -7.15,14.13 0,8.01 1.6,14.3 7.15,14.3 5.55,0 7.15,-6.29 7.15,-14.3z" fill="#808080"/>
<path d="M412.31 1366.6l336.96 0c17.98,0 32.69,14.71 32.69,32.69l0 224.52c0,17.98 -14.71,32.69 -32.69,32.69l-16.63 0 0 32.2c0,4.83 -5.81,7.27 -9.26,3.9l-36.9 -36.09 -274.17 0c-17.98,0 -32.69,-14.71 -32.69,-32.69l0 -224.52c0,-17.98 14.71,-32.69 32.69,-32.69z" fill="#808080"/>
<path d="M529.32 1426.32c24.51,0 44.96,16.48 51.46,38.9 6.51,-22.41 26.96,-38.9 51.46,-38.9 29.73,0 53.83,24.1 53.83,53.83 0,39.4 -64.05,88.29 -92.24,107.89 -7.82,5.44 -18.21,5.39 -25.98,-0.13 -28.13,-19.98 -92.35,-69.78 -92.35,-107.76 0,-29.73 24.1,-53.83 53.83,-53.83z" fill="#808080"/>
<path d="M727.18 289.3l887.12 0c17.9,0 32.41,14.51 32.41,32.42l0 189.79c0,17.9 -14.51,32.41 -32.41,32.41l-28.42 0 0 44.88c0,6.04 -7.23,9.14 -11.61,4.98l-52.5 -49.86 -794.59 0c-17.9,0 -32.41,-14.51 -32.41,-32.41l0 -189.79c0,-17.9 14.51,-32.42 32.41,-32.42z" fill="#808080"/>
<polygon fill="#808080" points="1368.43,346.59 832.51,346.59 832.51,343.33 1368.43,343.33 "/>
<polygon fill="#808080" points="1583.21,346.59 1427.31,346.59 1427.31,343.33 1583.21,343.33 "/>
<polygon fill="#808080" points="999.11,394.76 764.27,394.76 764.27,391.5 999.11,391.5 "/>
<polygon fill="#808080" points="1583.21,394.76 1067.36,394.76 1067.36,391.5 1583.21,391.5 "/>
<polygon fill="#808080" points="1415.27,491.1 764.27,491.1 764.27,487.84 1415.27,487.84 "/>
<polygon fill="#808080" points="1583.21,491.1 1460.1,491.1 1460.1,487.84 1583.21,487.84 "/>
<polygon fill="#808080" points="1291.49,442.93 929.52,442.93 929.52,439.67 1291.49,439.67 "/>
<polygon fill="#808080" points="1583.21,442.93 1350.37,442.93 1350.37,439.67 1583.21,439.67 "/>
<path d="M342.37 2150.74c0,-42.84 -50.73,-60.48 -50.73,-159.96 0,-47.29 -35.99,-86.16 -82.07,-90.74l0 -15.21c0,-5.02 -4.1,-9.12 -9.12,-9.12 -5.02,0 -9.12,4.1 -9.12,9.12l0 15.21c-46.08,4.58 -82.08,43.45 -82.08,90.74 0,99.48 -50.73,117.12 -50.73,159.96l141.93 0 141.93 0z" fill="#808080"/>
<path d="M200.44 2168.49c18.76,0 35.86,-6.99 48.96,-18.44l-97.91 0c13.1,11.45 30.19,18.44 48.96,18.44z" fill="#808080"/>
<polygon fill="#808080" points="209.56,1901.67 191.32,1901.67 191.32,1898.41 209.56,1898.41 "/>
<polygon fill="#808080" points="249.4,2151.67 151.48,2151.67 151.48,2148.41 249.4,2148.41 "/>
<polygon fill="#808080" points="202.07,1857.27 198.81,1857.27 198.81,1835.11 202.07,1835.11 "/>
<polygon fill="#808080" points="320.96,1957.26 298.8,1957.26 298.8,1954 320.96,1954 "/>
<polygon fill="#808080" points="102.08,1957.26 79.92,1957.26 79.92,1954 102.08,1954 "/>
<polygon fill="#808080" points="271.15,1887.23 268.84,1884.93 284.51,1869.26 286.81,1871.56 "/>
<polygon fill="#808080" points="129.73,1887.23 114.07,1871.56 116.37,1869.26 132.04,1884.93 "/>
<path d="M59.6 1180.27l13.5 0 34.22 -54.67c4.42,-6.48 9.46,-32.73 9.46,-32.73 0,-4.88 4.11,-8.82 8.97,-8.4 12.09,1.05 31.94,6.47 30.45,30.8l-9.59 58.6 68.19 0c21.78,0.96 19.89,35.51 0,37.65 12.79,9.23 5.93,32.95 -10.65,33.38 15.27,12.61 2.8,35.56 -12.08,34.81 15.81,10.3 5.27,33.43 -8.88,33.38l-110.57 0c-7.19,0 -13.03,-5.83 -13.03,-13.03l0 -119.8z" fill="#808080"/>
<polygon fill="#808080" points="59.6,1317.7 -0,1317.7 -0,1176.42 59.6,1176.42 "/>
<polygon fill="#808080" points="214.81,1213.15 197.17,1213.15 197.17,1209.89 214.81,1209.89 "/>
<polygon fill="#808080" points="205.99,1246.56 188.36,1246.56 188.36,1243.3 205.99,1243.3 "/>
<polygon fill="#808080" points="192.93,1281.72 175.31,1281.72 175.31,1278.46 192.93,1278.46 "/>
<path d="M28.12 1306.94c-7.26,0 -13.17,-5.91 -13.17,-13.17 0,-7.26 5.91,-13.17 13.17,-13.17 7.26,0 13.17,5.91 13.17,13.17 0,7.26 -5.91,13.17 -13.17,13.17zm0 -23.08l0 0c-5.47,0 -9.91,4.45 -9.91,9.91 0,5.47 4.44,9.91 9.91,9.91 5.47,0 9.92,-4.45 9.92,-9.91 0,-5.47 -4.45,-9.91 -9.92,-9.91z" fill="#808080"/>
<path d="M2204.28 2729.49l0 -3.04 -2199.21 0 0 3.26 2199.26 0c-0.01,-0.08 -0.05,-0.15 -0.05,-0.22z" fill="#808080"/>
<polygon fill="#808080" points="3179,849.56 3501.27,849.56 3643.63,424.82 3321.37,424.82 "/>
<polygon fill="#808080" points="3676.44,424.82 3534.07,849.56 3856.34,849.56 3998.7,424.82 "/>
<polygon fill="#808080" points="2962.74,1494.78 3285,1494.78 3490.09,882.9 3167.83,882.9 "/>
<polygon fill="#808080" points="3317.81,1494.78 3640.07,1494.78 3845.16,882.9 3522.9,882.9 "/>
<polygon fill="#808080" points="2745.72,2142.26 3067.98,2142.26 3273.07,1530.38 2950.81,1530.38 "/>
<polygon fill="#808080" points="3100.79,2142.26 3423.05,2142.26 3628.14,1530.38 3305.88,1530.38 "/>
<polygon fill="#808080" points="4031.92,424.82 3889.55,849.56 4211.82,849.56 4354.18,424.82 "/>
<polygon fill="#808080" points="3673.29,1494.78 3995.56,1494.78 4200.64,882.9 3878.38,882.9 "/>
<polygon fill="#808080" points="3456.27,2142.26 3778.53,2142.26 3983.62,1530.38 3661.36,1530.38 "/>
<polygon fill="#808080" points="4075.56,2727.4 4054.84,2727.4 4049.04,1056.03 4081.49,1056.03 "/>
<polygon fill="#808080" points="4090.61,1032.17 4039.92,1032.17 4039.92,658.99 4090.61,658.99 "/>
<polygon fill="#808080" points="3827.32,512.53 3784.32,877.86 4346.22,877.86 4303.21,512.53 "/>
<polygon fill="#808080" points="4144.44,1032.17 4086.15,1032.17 4044.39,1032.17 3986.09,1032.17 3878.35,2727.4 3899.68,2727.4 4015.57,1104.91 4065.27,1104.91 4114.96,1104.91 4230.86,2727.4 4252.18,2727.4 "/>
<path d="M4076.24 1068.64c0,8.23 -4.91,14.9 -10.97,14.9 -6.06,0 -10.97,-6.67 -10.97,-14.9 0,-8.23 4.91,-14.9 10.97,-14.9 6.06,0 10.97,6.67 10.97,14.9z" fill="#808080"/>
<polygon fill="#808080" points="4307.23,548.29 3823.31,548.29 3823.31,545.03 4307.23,545.03 "/>
<polygon fill="#808080" points="4235.74,1416.69 4232.48,1416.69 4232.48,877.86 4235.74,877.86 "/>
<path d="M4234.11 1467.58c-2.69,0 -4.9,-2.2 -4.9,-4.9l0 -56.69c0,-2.69 2.2,-4.9 4.9,-4.9 2.69,0 4.9,2.2 4.9,4.9l0 56.69c0,2.69 -2.2,4.9 -4.9,4.9z" fill="#808080"/>
<polygon fill="#808080" points="2359.89,727.62 2208.7,727.62 2208.7,645.14 2359.89,645.14 "/>
<polygon fill="#808080" points="2952.02,2728.08 2208.7,2728.08 2208.7,680.78 2952.02,680.78 "/>
<polygon fill="#808080" points="2933.22,2728.08 2826.66,2728.08 2826.66,680.78 2933.22,680.78 "/>
<polygon fill="#808080" points="2911.74,2681.24 2826.66,2681.24 2826.66,727.62 2911.74,727.62 "/>
<polygon fill="#808080" points="2808.5,2728.08 2805.24,2728.08 2805.24,680.78 2808.5,680.78 "/>
<polygon fill="#808080" points="2526.14,2610.62 2208.7,2610.62 2208.7,2607.37 2526.14,2607.37 "/>
<polygon fill="#808080" points="2657.48,1018.41 2208.7,1018.41 2208.7,1015.15 2657.48,1015.15 "/>
<polygon fill="#808080" points="2530.17,1112.71 2208.7,1112.71 2208.7,1109.45 2530.17,1109.45 "/>
<path d="M2604.78 2252.76l-396.08 0 0 -866.96 396.1 0c18.85,0 34.14,15.28 34.14,34.14l0 798.66c0,18.87 -15.29,34.16 -34.16,34.16z" fill="#808080"/>
<polygon fill="#808080" points="2842.16,2681.24 2838.9,2681.24 2838.9,1106.92 2842.16,1106.92 "/>
<polygon fill="#808080" points="2842.16,1016.78 2838.9,1016.78 2838.9,727.62 2842.16,727.62 "/>
<polygon fill="#808080" points="2860.83,2681.24 2857.57,2681.24 2857.57,1646.08 2860.83,1646.08 "/>
<polygon fill="#808080" points="2860.83,1225.07 2857.57,1225.07 2857.57,727.62 2860.83,727.62 "/>
<polygon fill="#808080" points="2879.5,2681.24 2876.24,2681.24 2876.24,2439.56 2879.5,2439.56 "/>
<polygon fill="#808080" points="2879.5,1791.68 2876.24,1791.68 2876.24,727.62 2879.5,727.62 "/>
<polygon fill="#808080" points="2898.18,2681.24 2894.92,2681.24 2894.92,1293.57 2898.18,1293.57 "/>
<polygon fill="#808080" points="2898.18,830.96 2894.92,830.96 2894.92,727.62 2898.18,727.62 "/>
<path d="M4106.87 2608.18c-0.22,0.03 12.29,121.37 12.29,108.73 0,0 44.2,-2.46 66.87,0.7 22.4,8.41 57.14,21.47 66.64,-19.8l70.36 -305.5c-88.7,-5.97 -81.21,104.87 -135.94,164.37 -26.57,23.91 -80.21,51.49 -80.21,51.49z" fill="#808080"/>
<path d="M4286.49 2550.96l38.04 -165.18c-34.66,-7.98 -71.71,15.82 -132.46,143.43l94.42 21.75z" fill="#808080"/>
<path d="M4338.58 2385.64l-77.74 337.57c-0.78,3.37 -4.17,5.49 -7.54,4.71l-1.05 -0.24c-3.37,-0.78 -5.49,-4.17 -4.71,-7.54l77.74 -337.57c0.78,-3.37 4.17,-5.49 7.54,-4.71l1.05 0.24c3.37,0.78 5.49,4.17 4.71,7.54z" fill="#808080"/>
<polygon fill="#808080" points="4288.08,2551.32 4284.91,2550.6 4322.95,2385.42 4326.12,2386.15 "/>
<path d="M3109 2483.55l-186.53 164.05 97.23 79.23c0,0 46.69,0.32 77.8,-0.01 118.82,-1.28 1067.15,0.59 1067.15,0.59l-7.67 -166.39 -1047.98 -77.46z" fill="#808080"/>
<path d="M3856.32 2547.9c0,0 -79.01,45.45 -88.88,101.7 -3.17,23.71 -8.11,60.5 34.25,60.5l313.5 0c-14.09,-87.77 -120.42,-55.6 -190.69,-95.59 -29.27,-20.53 -68.18,-66.61 -68.18,-66.61z" fill="#808080"/>
<path d="M3957.95 2710.09l163.94 0c0,-35.08 -30.7,-65.49 -163.94,-95.63l0 95.63z" fill="#808080"/>
<path d="M4125.05 2723.74l-361.43 0c-3.53,0 -6.42,-2.89 -6.42,-6.42l0 -0.82c0,-3.53 2.89,-6.42 6.42,-6.42l361.43 0c3.53,0 6.42,2.89 6.42,6.42l0 0.82c0,3.53 -2.89,6.42 -6.42,6.42z" fill="#808080"/>
<polygon fill="#808080" points="4121.89,2711.72 3957.95,2711.72 3957.95,2708.46 4121.89,2708.46 "/>
<path d="M3026.76 2394.62l-186.53 252.97c0,0 56.21,80.49 175.03,79.21 118.82,-1.28 185.26,-90.71 185.26,-90.71l236.92 -266.7 301.43 313.99 143.91 -143.11 -374.34 -428.01c-51.58,-52.86 -121.54,-45.68 -177.59,0l-304.08 282.35z" fill="#808080"/>
<polygon fill="#808080" points="3437.38,2374 3422.14,2332.39 3425.19,2331.27 3437.49,2364.79 3457.61,2313.35 3460.64,2314.54 "/>
<polygon fill="#808080" points="3712.97,2656.29 3710.6,2654.05 3851.65,2504.92 3854.02,2507.16 "/>
<polygon fill="#808080" points="3247.45,2136.96 3104.08,2232.43 3023.83,2111.92 3167.21,2016.45 "/>
<path d="M3197.43 2051.21c0,0 -66.31,-147.12 -160.26,-199.19 -125.2,-69.42 -213.39,39.53 -144.79,143.7 0,0 64.47,100.32 141.27,195.96 45.87,7.54 169.35,-131.96 163.78,-140.47z" fill="#808080"/>
<path d="M3167.88 1533.01c0,0 22.98,26.24 22.41,27.75 0.63,13.95 -7.25,58.4 -49.12,97.96 -47.27,44.67 -3.09,-105.33 -3.09,-105.33l29.79 -20.38z" fill="#808080"/>
<path d="M3170.76 1562.29c0,0 -32.41,252.07 -115.66,251.71 -5.86,0.53 -12.57,-0.28 -19.51,-2.12 1.45,24.44 2.56,75.91 2.56,75.91 -107.22,41.93 -147.73,-23.1 -148.14,-84.45l9.41 -120.02 50.93 -136.74 86.1 -49.22 80.4 31.71 39.35 30.44 14.56 2.77z" fill="#808080"/>
<path d="M2919.44 1503.69c11.95,-23.8 25.53,-39.25 52.1,-53.82 20.93,-9.01 43.96,-11.15 66.47,-8.66 24.85,2.74 48.94,10.58 71.96,20.1 14.46,5.99 28.57,12.78 42.49,19.91 15.33,7.85 30.79,17.2 47.87,20.59 10.28,2.04 21.11,2.46 31.31,-0.3 -7.22,29.38 -29.69,84.77 -72.24,84.72 -72.68,-0.36 -156.6,-36.77 -156.6,-36.77 -6.19,43.04 -12.23,86.84 -26.71,87.36 2.65,-16.72 -3.02,-25.44 -13.9,-31.2 -37.87,-15.44 -61.2,32.68 -22.58,71.86 -11.76,9.65 -25.48,12.39 -41.3,7.72 -43.56,-100.09 -28.88,-165.42 21.13,-181.51z" fill="#808080"/>
<path d="M3093.88 1714.3l-1.2 -3.03c5.99,-2.38 16.24,-7.07 18.24,-9.55 1.4,-2.81 -2.42,-28.88 -6.94,-52.42l3.19 -0.61c2.94,15.26 9.43,51.17 6.28,55.08 -3.18,3.96 -17.9,9.88 -19.57,10.54z" fill="#808080"/>
<path d="M3099.25 1740.46c-8.94,0 -19.55,-2.05 -29.19,-9.28l1.96 -2.61c20.38,15.28 46.38,5.42 46.64,5.31l1.18 3.03c-0.63,0.25 -9.28,3.55 -20.6,3.55z" fill="#808080"/>
<path d="M3067.53 1654.15c-2.04,3.31 -6.38,4.34 -9.69,2.3 -3.31,-2.04 -4.34,-6.38 -2.3,-9.69 2.04,-3.31 6.38,-4.34 9.69,-2.3 3.31,2.04 4.34,6.38 2.3,9.69z" fill="#808080"/>
<path d="M3144.34 1661.69c-2.04,3.31 -6.38,4.34 -9.69,2.3 -3.31,-2.04 -4.34,-6.38 -2.3,-9.69 2.04,-3.31 6.38,-4.34 9.69,-2.3 3.31,2.04 4.34,6.38 2.3,9.69z" fill="#808080"/>
<path d="M3079.93 1632.46c-7.89,-3.19 -16.75,-3.42 -26.34,-0.68l-0.89 -3.13c10.32,-2.94 19.89,-2.68 28.46,0.79l-1.22 3.02z" fill="#808080"/>
<path d="M3153.29 1642.23c-7.08,-3.9 -14.23,-5.4 -21.82,-4.73l-0.3 -3.24c8.17,-0.76 16.14,0.95 23.71,5.12l-1.58 2.85z" fill="#808080"/>
<path d="M3035.27 1813.47c-55.5,-11.08 -69.98,-70.28 -70.12,-70.88l3.17 -0.74c0.14,0.58 14.17,57.76 67.59,68.43l-0.64 3.19z" fill="#808080"/>
<path d="M2949.21 1666.24c-15.9,-14.45 -18.62,-31.42 -13.09,-40.71 4.79,-8.04 15.05,-10.27 27.41,-5.95l-1.07 3.07c-10.96,-3.82 -19.54,-2.17 -23.54,4.54 -4.85,8.15 -2.12,23.36 12.48,36.64l-2.19 2.41z" fill="#808080"/>
<path d="M2953.06 1653c-0.01,-0.07 -1.49,-6.99 -17.38,-7.84l0.18 -3.26c18.81,1.01 20.37,10.2 20.42,10.6l-3.22 0.5z" fill="#808080"/>
<path d="M3056.13 1690.17c-1.77,0 -3.55,-0.13 -5.32,-0.41 -21.34,-3.3 -35.64,-25.88 -31.87,-50.34 1.82,-11.81 7.53,-22.3 16.08,-29.55 8.62,-7.3 19.08,-10.45 29.48,-8.84 10.39,1.6 19.42,7.75 25.44,17.31 5.97,9.49 8.26,21.22 6.43,33.02 -1.82,11.81 -7.54,22.31 -16.08,29.56 -7.15,6.06 -15.57,9.25 -24.15,9.25zm3.07 -86.29l0 0c-7.82,0 -15.51,2.93 -22.06,8.48 -7.96,6.74 -13.28,16.53 -14.98,27.56 -3.5,22.68 9.58,43.6 29.14,46.62 9.47,1.47 18.99,-1.42 26.87,-8.11 7.96,-6.74 13.28,-16.53 14.98,-27.56 1.71,-11.03 -0.41,-21.97 -5.97,-30.79 -5.51,-8.75 -13.73,-14.38 -23.17,-15.83 -1.61,-0.25 -3.21,-0.37 -4.81,-0.37z" fill="#808080"/>
<path d="M3151.38 1704.93c-1.54,0 -3.07,-0.12 -4.61,-0.36 -19.84,-3.06 -32.92,-25.45 -29.14,-49.92 3.78,-24.47 22.97,-41.89 42.84,-38.82 19.84,3.07 32.91,25.46 29.14,49.92 -1.82,11.79 -7.23,22.31 -15.25,29.63 -6.82,6.24 -14.84,9.54 -22.98,9.54zm4.52 -86.19l0 0c-16.56,0 -31.81,15.42 -35.05,36.41 -3.5,22.69 8.36,43.42 26.42,46.2 8.71,1.34 17.53,-1.63 24.89,-8.37 7.47,-6.82 12.51,-16.67 14.22,-27.73 3.5,-22.69 -8.35,-43.41 -26.41,-46.2 -1.36,-0.21 -2.72,-0.31 -4.07,-0.31z" fill="#808080"/>
<path d="M3119.66 1649.34c-6.64,-8.11 -15.65,-9.54 -23.53,-3.7l-1.95 -2.62c9.27,-6.87 20.25,-5.2 28,4.26l-2.52 2.06z" fill="#808080"/>
<polygon fill="#808080" points="3188.14,1664.87 3153.47,1661.82 3153.75,1658.58 3188.42,1661.62 "/>
<polygon fill="#808080" points="3020.45,1641.3 2976,1638.43 2976.2,1635.18 3020.66,1638.05 "/>
<path d="M2886.22 1797.97c0,0 -176.31,69.63 -182.7,256.17 -0.21,329.63 122.65,608.15 122.65,608.15l14.05 -14.69 278.03 -337.93c0,0 1.92,-308.07 -7.81,-352.79 -9.72,-44.72 -72.03,-89.1 -72.03,-89.1 -61.38,17.41 -110.43,-25.43 -152.19,-69.8z" fill="#808080"/>
<path d="M3116.76 2225.49c-0.18,-98.85 -14.37,-221.98 -27.5,-274.95l3.16 -0.79c13.18,53.17 27.41,176.64 27.6,275.74l-3.26 0z" fill="#808080"/>
<path d="M3261.3 2198.44c-5.36,0 -13.8,-1.13 -22.79,-6.73l1.72 -2.76c13.6,8.46 26.08,5.83 26.19,5.79l0.71 3.18c-0.22,0.04 -2.39,0.52 -5.83,0.52z" fill="#808080"/>
<path d="M3590.5 1850.13c0.99,-5.41 -3.74,-10.26 -8.08,-11.84l-67.93 -31.63 -16.78 51.48 81.19 5.51 3.74 -0.52 2.5 -0.83 2.91 -2.52 2.45 -9.65z" fill="#808080"/>
<path d="M3582.9 1848.69l-73.05 -34.34 -10.4 31.99 -121.83 -6.78 -4.94 18.57 207.18 0c5.29,0.31 8.15,-6.58 3.04,-9.45z" fill="#808080"/>
<path d="M2966.38 2022.45c-0.35,0.1 -0.69,0.22 -1.03,0.33 -18.66,5.55 -37.55,10.3 -56.25,15.74 -20.76,6.04 -41.35,12.67 -61.99,19.11 -20.48,6.38 -41.03,12.58 -61.83,17.84 -5.85,1.48 -11.72,2.84 -17.6,4.14 25.91,118.03 68.61,303.33 86.26,326.85 53.89,101.64 164.93,41.75 157.93,-43.41 3.96,-45.5 -18.12,-216.19 -45.5,-340.59z" fill="#808080"/>
<path d="M3236.4 2126.14c31.64,-19.54 81.43,19.57 43.1,56.86 0,0 -228.69,242.58 -306.88,269.07 -78.98,32.6 -161.44,-40.34 -80.94,-129.56 25.22,-35.54 344.72,-196.37 344.72,-196.37z" fill="#808080"/>
<path d="M3001.41 2190.33c0,0 1.86,-166.75 -63.09,-255.84 -86.54,-118.76 -215.74,-53.85 -196.9,73.46 0,0 16.65,121.92 46.81,244.7 39.44,26.67 214.7,-51.93 213.19,-62.31z" fill="#808080"/>
<path d="M2786.63 2253.03c-29.83,-121.45 -46.67,-243.64 -46.84,-244.86l3.23 -0.45c0.16,1.22 16.98,123.25 46.77,244.52l-3.17 0.78z" fill="#808080"/>
<path d="M3003.04 2190.35l-3.26 -0.04c0.01,-0.41 0.38,-42.21 -7.18,-94.31 -6.96,-48 -22.25,-114.82 -55.6,-160.55 -34.85,-47.82 -81.02,-69.97 -123.5,-59.21l-0.8 -3.16c43.85,-11.08 91.29,11.51 126.94,60.45 33.75,46.29 49.19,113.68 56.2,162.06 7.59,52.35 7.21,94.35 7.21,94.77z" fill="#808080"/>
<polygon fill="#808080" points="2931.76,2294.97 2930.07,2292.18 3003.4,2247.62 3005.1,2250.41 "/>
<path d="M3508.6 2165.43l-228 0 79.88 -307.29 214.54 0c6.38,0 13.66,0.47 15.71,-8.82l-82.13 316.11z" fill="#808080"/>
<polygon fill="#808080" points="3118.43,2188.93 3116.93,2186.04 3224.79,2130.2 3226.29,2133.09 "/>
<polygon fill="#808080" points="3291.28,2156.52 3288.12,2155.71 3365.51,1857.73 3368.67,1858.55 "/>
<polygon fill="#808080" points="3496.23,2165.85 3493.08,2165.02 3573.81,1857.73 3576.97,1858.56 "/>
<path d="M3434.54 2079.95c10.48,-4.23 9.95,-33.67 -8.65,-26.27 0,0 -74.33,38.46 -97.69,36.85 -30.73,-0.88 -18.68,-36.35 -18.68,-36.35l3.64 -14.01c2.44,-9.37 -52.58,29.68 -61.45,43.98l-25.83 31.1c-17.63,22.1 -19.48,76.89 17.76,81.92 0,0 83.66,10.43 111.86,6.55 28.2,-3.88 66.82,-45.81 66.82,-45.81 8.19,-7.08 10.03,-30.49 2.6,-25.63 18.38,-10.84 12.14,-28.71 2.13,-25.34 16.2,-7.38 14.38,-24.88 7.49,-27z" fill="#808080"/>
<path d="M3356.63 2115.83l-0.94 -3.12c27.21,-8.17 53.46,-19.65 78.03,-34.16l1.66 2.8c-24.79,14.65 -51.29,26.24 -78.74,34.48z" fill="#808080"/>
<path d="M3367.69 2166.95l-1.2 -3.03c19.21,-7.61 38.58,-18.6 59.22,-33.59l1.91 2.63c-20.86,15.16 -40.47,26.27 -59.94,33.99z" fill="#808080"/>
<path d="M3363.25 2139.51l-1.02 -3.09c24.52,-8.11 45.71,-18.33 64.77,-31.22l1.82 2.7c-19.31,13.07 -40.76,23.41 -65.57,31.62z" fill="#808080"/>
<path d="M3231.64 2156.79c-9,-19.67 -3.64,-45.54 -3.4,-46.63l3.18 0.68c-0.05,0.26 -5.36,25.92 3.19,44.6l-2.97 1.35z" fill="#808080"/>
<polygon fill="#808080" points="3533.76,1928.93 3389.82,1928.93 3389.82,1925.68 3533.76,1925.68 "/>
<polygon fill="#808080" points="3512.96,1959.94 3399.57,1959.94 3399.57,1956.68 3512.96,1956.68 "/>
<polygon fill="#808080" points="3562.83,1905.92 3575.94,1905.92 3572.86,1917.78 3559.71,1917.78 "/>
<polygon fill="#808080" points="3511.45,2099.69 3525.66,2099.69 3522.32,2112.54 3508.07,2112.54 "/>
<path d="M2826.66 378.53c-31.71,0 -57.51,-25.8 -57.51,-57.51 0,-31.71 25.8,-57.51 57.51,-57.51 31.71,0 57.51,25.8 57.51,57.51 0,31.71 -25.8,57.51 -57.51,57.51zm0 -111.75l0 0c-29.92,0 -54.25,24.34 -54.25,54.25 0,29.91 24.33,54.25 54.25,54.25 29.92,0 54.25,-24.34 54.25,-54.25 0,-29.91 -24.33,-54.25 -54.25,-54.25z" fill="#808080"/>
<path d="M2826.66 307.12c-10.35,0 -18.82,-8.47 -18.82,-18.82l0 -56.42c0,-10.35 8.47,-18.82 18.82,-18.82 10.35,0 18.82,8.47 18.82,18.82l0 56.42c0,10.35 -8.47,18.82 -18.82,18.82z" fill="#808080"/>
<path d="M3173.78 320.26c-102.7,-39.42 -221.07,-61.92 -347.13,-61.92 -126.05,0 -244.43,22.5 -347.12,61.92l694.25 0z" fill="#808080"/>
<polygon fill="#808080" points="2828.29,213.06 2825.03,213.06 2825.03,0 2828.29,0 "/>
<path d="M3411.88 2715.44l0 -60.7 12.31 0 0 -12.65 -229.89 -2.44c-23.25,0 -44.68,21.71 -44.68,45.25 0,23.55 21.7,42.82 44.95,42.82l229.62 0 0 -12.28 -12.31 0z" fill="#808080"/>
<path d="M3506.26 2715.44l0 -60.7 12.31 0 0 -12.65 -229.89 -2.44c-23.25,0 -44.68,21.71 -44.68,45.25 0,23.55 21.7,42.82 44.95,42.82l229.62 0 0 -12.28 -12.31 0z" fill="#808080"/>
<path d="M3506.26 2654.73l-214.64 0c-16.55,0 -29.97,13.59 -29.97,30.35 0,16.76 13.42,30.35 29.97,30.35l214.64 0 0 -60.7z" fill="#808080"/>
<polygon fill="#808080" points="3280.29,2670.42 3280.23,2667.16 3506.23,2662.57 3506.3,2665.83 "/>
<polygon fill="#808080" points="3306.13,2686.72 3306.12,2683.46 3506.26,2682.62 3506.27,2685.88 "/>
<polygon fill="#808080" points="3506.27,2709.04 3291.9,2709.04 3291.9,2705.78 3506.27,2705.78 "/>
<path d="M3503.12 2641.91l-352.89 -1.82c-2.7,-0.01 -4.9,-2.24 -4.89,-4.94l0.11 -21.27c0.01,-2.7 2.24,-4.91 4.94,-4.89l352.89 1.82c2.7,0.01 4.91,2.24 4.89,4.94l-0.11 21.27c-0.01,2.7 -2.24,4.91 -4.94,4.89z" fill="#808080"/>
<polygon fill="#808080" points="3192.15,2640.39 3172.71,2640.29 3172.87,2609.11 3192.31,2609.21 "/>
<polygon fill="#808080" points="3480.64,2641.87 3461.19,2641.77 3461.35,2610.59 3480.8,2610.69 "/>
<path d="M3163.69 2491.66c0,0.02 -0,0.04 -0,0.06l0 61c0,31.22 25.54,56.77 56.77,56.77l34.47 0c31.22,0 56.77,-25.55 56.77,-56.77l0 -61c0,-0.02 -0,-0.04 -0,-0.06l-147.99 0z" fill="#808080"/>
<path d="M3182.45 2577.91l-28.57 0c-11.35,0 -20.58,-9.23 -20.58,-20.58l0 -32.19c0,-11.35 9.23,-20.58 20.58,-20.58l28.57 0c11.35,0 20.58,9.23 20.58,20.58l0 32.19c0,11.35 -9.23,20.58 -20.58,20.58zm-28.57 -66.83l0 0c-7.75,0 -14.06,6.31 -14.06,14.06l0 32.19c0,7.75 6.31,14.06 14.06,14.06l28.57 0c7.75,0 14.06,-6.31 14.06,-14.06l0 -32.19c0,-7.75 -6.31,-14.06 -14.06,-14.06l-28.57 0z" fill="#808080"/>
<path d="M2521.25 2528.08c0,0 -56.05,-134.74 12.19,-365.25 0,0 98.71,163.89 123.08,365.44l-135.26 -0.19z" fill="#808080"/>
<path d="M2499.59 2528.12c3.82,-47.99 -15.74,-96.87 -42.92,-146.04 57.5,38.69 101.73,85.97 126.16,146.04l-83.24 0z" fill="#808080"/>
<path d="M2600.67 2528.12c-0.57,-82.17 50.86,-214.04 96.91,-280.16l-14.69 280.16 -82.21 0z" fill="#808080"/>
<path d="M2486.13 2528.12c0,0 -38,-60.07 -112.74,-69 0,0 116.34,-50.16 174.51,69.16l-61.77 -0.16z" fill="#808080"/>
<path d="M2621.87 2528.12c0,0 39.56,-129.5 176.84,-176.03 0,0 -81.45,69.69 -96.58,176.03l-80.26 0z" fill="#808080"/>
<path d="M2546.44 2521.12c-18.45,-37.17 -54.39,-55.11 -54.75,-55.29l1.43 -2.93c0.38,0.18 37.28,18.57 56.23,56.76l-2.92 1.45z" fill="#808080"/>
<path d="M2481.68 2526.56c0,0 -6.04,161.34 52.04,200.99l117.37 0c50.28,-19.2 52.04,-200.99 52.04,-200.99l-221.45 0z" fill="#808080"/>
<polygon fill="#808080" points="2713.18,2575.62 2471.62,2575.62 2465.64,2520.52 2720.21,2514.89 "/>
<polygon fill="#808080" points="2703.13,2577.25 2481.67,2577.25 2481.67,2573.99 2703.13,2573.99 "/>
<path d="M2567.85 2518.02c-10.19,-52.14 -67.74,-100.57 -68.31,-101.06l2.09 -2.51c0.59,0.49 59.02,49.64 69.42,102.94l-3.19 0.62z" fill="#808080"/>
<path d="M2602.29 2517.62l-3.26 -0.18c3.13,-57.67 27.62,-126.18 27.87,-126.87l3.07 1.11c-0.25,0.68 -24.57,68.76 -27.67,125.94z" fill="#808080"/>
<path d="M2681.75 2514.88l-3.26 0c0,-30.03 8.28,-92.63 8.36,-93.26l3.23 0.43c-0.08,0.62 -8.33,63.01 -8.33,92.83z" fill="#808080"/>
<path d="M2209.82 2726.45l0 3.04c0,0.08 -0.04,0.14 -0.05,0.22l2198.43 0 0 -3.26 -2198.38 0z" fill="#808080"/>
<polygon fill="#808080" points="2209.9,3259.33 2203.38,3259.33 2203.38,0.52 2209.9,0.52 "/>
</g>
</svg>
