<svg xmlns="http://www.w3.org/2000/svg" width="201" height="217" viewBox="0 0 201 217" fill="none">
    <g filter="url(#filter0_d_15_373)">
        <path fill-rule="evenodd" clip-rule="evenodd" d="M183.922 108.22C157.447 114.103 168.375 95.0957 177.962 101.419C180.592 103.155 182.274 105.576 183.922 108.22ZM123.729 16.0892C122.065 15.766 120.305 15.4834 118.438 15.2416L117.851 13.1849L121.976 13.1442C123.983 8.14714 119.529 5.30619 115.071 5.20674C110.613 5.30619 106.159 8.14714 108.166 13.1442L112.291 13.1849L111.704 15.2416C109.837 15.4812 108.077 15.7637 106.413 16.0892V16.2112C84.2498 20.2206 67.4512 39.4338 67.4512 62.5343C67.4512 72.1443 70.3617 81.0808 75.3517 88.5301C77.7623 88.5685 80.4194 89.4974 82.5742 90.3223C82.8253 90.4173 83.0856 90.5235 83.3504 90.6342C83.444 90.2297 83.5238 89.8861 83.5809 89.6714C84.09 87.7775 84.9186 86.0146 86.1444 84.7331C81.3302 78.6037 78.4608 70.9013 78.4608 62.5366C78.4608 42.5505 94.8256 26.3478 115.012 26.3478C135.198 26.3478 151.563 42.5505 151.563 62.5366C151.563 82.5227 135.198 98.7277 115.012 98.7277C111.834 98.7277 108.752 98.3254 105.812 97.5705C105.226 99.4148 104.452 101.214 103.863 102.663C102.984 104.821 101.742 106.38 100.24 107.312C104.89 108.815 109.855 109.63 115.014 109.63C128.096 109.63 139.946 104.398 148.545 95.9365C146.141 104.163 143.288 110.209 141.388 112.899C134.625 122.479 123.775 130.577 114.464 125.286C107.6 121.385 106.604 118.452 103.014 113.855C95.1954 103.849 79.1387 114.424 72.6741 121.6L68.0082 127.332C64.2394 132.204 56.8891 143.193 62.096 148.929C67.7845 155.194 87.4182 152.645 93.1866 158.722C88.8243 163.245 66.456 172.079 57.6401 174.039C50.0409 175.73 42.8709 176.432 35.2832 174.385C22.3493 170.893 14.1909 161.168 11.4402 147.835C7.08018 126.712 26.4787 106.921 42.6267 94.273C49.589 88.8194 58.2108 82.6041 66.1524 78.3754C67.0883 77.8782 55.0561 81.5825 47.8746 85.6258C21.3358 100.567 12.7276 114.885 9.22137 126.871C4.38658 143.399 4.13091 161.846 14.499 175.386C16.2795 177.709 19.2448 180.379 21.7832 182.098C25.5497 184.652 29.323 186.352 34.7832 187.426C52.5474 190.922 86.5827 177.296 95.4762 165.557C96.5422 164.149 98.2588 161.541 98.9893 159.784C101.176 154.53 101.185 149.449 96.8138 146.615C94.0266 144.807 86.1786 143.428 82.1611 142.562C79.6409 142.02 77.0615 141.514 74.4363 140.949C71.7245 140.366 69.5787 139.45 67.5699 138.942C68.7752 136.542 70.3548 134.849 72.0052 133.418C74.2241 131.492 74.0734 131.312 77.0113 129.135C81.7136 125.655 94.3896 115.943 100.083 120.886C101.345 121.982 104.178 126.672 105.516 128.301C111.247 135.283 117.774 135.816 120.858 135.452C107.031 180.046 145.68 171.673 170.356 154.894C181.051 147.623 190.917 139.362 194.092 126.335C197.402 112.747 191.261 92.7859 182.192 88.2724C174.41 84.4009 168.404 91.371 165.939 96.0088C163.207 101.146 159.527 110.087 162.946 116.585C166.708 123.733 176.805 119.753 185.128 120.66C189.358 121.121 191.22 124.662 188.668 128.12C186.6 130.921 181.398 135.088 178.27 137.405C177.013 138.338 175.622 139.272 174.465 140.065C166.553 145.494 159.198 150.466 150.287 154.925C126.119 167.019 120.789 155.224 124.505 135.077C134.935 132.125 142.292 125.892 147.625 118.962C154.822 109.608 163.255 82.0481 162.574 62.5434C162.574 39.4813 145.831 20.2952 123.725 16.2428V16.1005L123.729 16.0892ZM110.99 57.3158C109.357 58.5294 108.3 60.4641 108.3 62.6406C108.3 66.3155 111.311 69.2966 115.023 69.2966C117.347 69.2966 119.394 68.1281 120.602 66.3539L139.149 62.6406L120.6 58.9272C120.18 58.3079 119.655 57.7633 119.054 57.3158L115.021 29.808L110.987 57.3158H110.99ZM48.6142 201.384C54.5174 203.511 55.9463 211.258 60.1602 206.11C61.3701 204.632 64.7919 200.609 64.8855 198.963C65.0361 196.31 57.7976 191.937 56.5581 191.399C53.4011 190.025 52.0931 196.961 48.9726 198.957C47.5574 198.199 41.9396 192.753 39.0885 192.188C38.0612 191.684 31.2085 200.471 32.133 202.184C32.3179 203.945 41.0836 208.933 41.1543 208.946C44.5784 209.649 46.4959 203.255 48.612 201.384H48.6142ZM86.6945 99.6136C92.9675 99.9301 96.6335 106.921 99.1331 100.771C99.8521 99.0057 101.927 94.1645 101.53 92.5666C100.886 89.9856 92.6684 87.9131 91.3262 87.7571C87.8998 87.3616 88.7079 94.3725 86.3202 97.1885C84.7428 96.8767 77.7554 93.3034 74.8632 93.595C73.731 93.4119 69.7887 103.804 71.1812 105.174C71.8797 106.803 81.7388 109.02 81.8118 109.013C85.293 108.688 85.229 102.018 86.6968 99.6159L86.6945 99.6136ZM100.998 10.9225C100.674 -6.27686 62.1142 12.3758 77.4199 25.7149C83.4759 18.7922 91.6343 13.707 100.998 10.9225ZM129.135 11.0943C129.235 -6.10735 168.035 12.0526 152.903 25.5861C146.757 18.7403 138.533 13.759 129.135 11.0943Z" fill="white"/>
    </g>
    <defs>
        <filter id="filter0_d_15_373" x="0" y="0" width="201" height="217" filterUnits="userSpaceOnUse" color-interpolation-filters="sRGB">
            <feFlood flood-opacity="0" result="BackgroundImageFix"/>
            <feColorMatrix in="SourceAlpha" type="matrix" values="0 0 0 0 0 0 0 0 0 0 0 0 0 0 0 0 0 0 127 0" result="hardAlpha"/>
            <feOffset dy="2"/>
            <feGaussianBlur stdDeviation="3"/>
            <feComposite in2="hardAlpha" operator="out"/>
            <feColorMatrix type="matrix" values="0 0 0 0 0 0 0 0 0 0 0 0 0 0 0 0 0 0 0.25 0"/>
            <feBlend mode="normal" in2="BackgroundImageFix" result="effect1_dropShadow_15_373"/>
            <feBlend mode="normal" in="SourceGraphic" in2="effect1_dropShadow_15_373" result="shape"/>
        </filter>
    </defs>
</svg>