<svg width="100" height="100" viewBox="0 0 100 100" fill="none" xmlns="http://www.w3.org/2000/svg">
<g clip-path="url(#clip0_13_75)">
<path fill-rule="evenodd" clip-rule="evenodd" d="M85.6478 60.0445C77.3492 61.907 80.7744 55.8895 83.7795 57.8915C84.6038 58.441 85.1311 59.2073 85.6478 60.0445ZM66.7804 30.8773C66.2588 30.775 65.7071 30.6855 65.1218 30.609L64.9379 29.9578L66.2308 29.945C66.8598 28.363 65.4638 27.4636 64.0664 27.4321C62.669 27.4636 61.273 28.363 61.902 29.945L63.1949 29.9578L63.011 30.609C62.4257 30.6848 61.8741 30.7743 61.3525 30.8773V30.9159C54.4055 32.1852 49.1401 38.2678 49.1401 45.5811C49.1401 48.6235 50.0524 51.4526 51.6165 53.8109C52.3721 53.8231 53.2049 54.1172 53.8804 54.3783C53.9591 54.4084 54.0406 54.442 54.1236 54.4771C54.153 54.349 54.178 54.2402 54.1959 54.1723C54.3555 53.5727 54.6152 53.0146 54.9994 52.6089C53.4904 50.6684 52.591 48.2299 52.591 45.5818C52.591 39.2545 57.7205 34.125 64.0478 34.125C70.3751 34.125 75.5046 39.2545 75.5046 45.5818C75.5046 51.9091 70.3751 57.0393 64.0478 57.0393C63.0518 57.0393 62.0859 56.912 61.1643 56.673C60.9804 57.2569 60.7378 57.8264 60.5532 58.2851C60.2778 58.9684 59.8885 59.4621 59.4177 59.7569C60.8752 60.2327 62.4315 60.491 64.0485 60.491C68.1491 60.491 71.8634 58.8346 74.5587 56.1557C73.8053 58.7602 72.9109 60.6742 72.3156 61.5256C70.1955 64.5587 66.7947 67.1224 63.8761 65.4473C61.7245 64.2124 61.4126 63.2836 60.2871 61.8283C57.8364 58.6607 52.8035 62.0086 50.7772 64.2803L49.3147 66.0949C48.1333 67.6375 45.8294 71.1164 47.4615 72.9323C49.2445 74.9157 55.3987 74.1086 57.2068 76.0327C55.8394 77.4644 48.8281 80.2613 46.0648 80.8817C43.6829 81.4169 41.4354 81.6394 39.0571 80.9912C35.003 79.8857 32.4457 76.8068 31.5835 72.586C30.2169 65.8988 36.2973 59.6331 41.3589 55.6291C43.5412 53.9025 46.2437 51.9349 48.733 50.5961C49.0263 50.4387 45.2548 51.6115 43.0038 52.8915C34.6853 57.6218 31.9871 62.1545 30.888 65.9489C29.3726 71.1815 29.2924 77.0215 32.5423 81.3081C33.1004 82.0437 34.0299 82.8887 34.8255 83.4332C36.0061 84.2418 37.1888 84.7798 38.9004 85.1197C44.4685 86.2266 55.1368 81.9128 57.9244 78.1964C58.2586 77.7506 58.7967 76.9249 59.0256 76.3689C59.7111 74.7054 59.7139 73.0969 58.3437 72.1996C57.4701 71.6272 55.0102 71.1908 53.7508 70.9167C52.9609 70.745 52.1524 70.5847 51.3296 70.4059C50.4795 70.2213 49.8069 69.9315 49.1773 69.7705C49.5551 69.0106 50.0502 68.4747 50.5675 68.0218C51.263 67.4121 51.2158 67.3549 52.1366 66.6659C53.6106 65.564 57.5839 62.4894 59.3683 64.0542C59.764 64.4013 60.652 65.886 61.0713 66.4018C62.8679 68.6121 64.9136 68.7809 65.8802 68.6657C61.5464 82.7835 73.6607 80.1325 81.3954 74.8206C84.7476 72.5188 87.8401 69.9036 88.8354 65.7793C89.8729 61.4777 87.9481 55.1583 85.1054 53.7294C82.6662 52.5037 80.7837 54.7103 80.0109 56.1786C79.1545 57.8049 78.0011 60.6355 79.0729 62.6926C80.2521 64.9558 83.4168 63.6958 86.0255 63.9827C87.3514 64.1286 87.9353 65.2499 87.1353 66.3446C86.4871 67.2311 84.8564 68.5505 83.8761 69.2839C83.4819 69.5794 83.0461 69.8749 82.6834 70.1261C80.2034 71.8448 77.898 73.4189 75.1047 74.8306C67.5295 78.6593 65.8588 74.925 67.0236 68.547C70.2928 67.6125 72.5989 65.6391 74.2704 63.4453C76.5264 60.4838 79.1695 51.7588 78.9563 45.584C78.9563 38.2829 73.708 32.2089 66.7789 30.9259V30.8809L66.7804 30.8773ZM62.7871 43.929C62.2755 44.3132 61.9442 44.9257 61.9442 45.6147C61.9442 46.7782 62.888 47.7219 64.0514 47.7219C64.7798 47.7219 65.4216 47.352 65.8001 46.7903L71.6137 45.6147L65.7994 44.4391C65.6677 44.2431 65.5032 44.0706 65.315 43.929L64.0507 35.2205L62.7864 43.929H62.7871ZM43.2357 89.5387C45.086 90.212 45.5339 92.6648 46.8547 91.0348C47.234 90.5669 48.3065 89.2933 48.3358 88.7724C48.3831 87.9324 46.1142 86.5478 45.7256 86.3776C44.7361 85.9425 44.3261 88.1384 43.348 88.7702C42.9044 88.5305 41.1435 86.8061 40.2498 86.6273C39.9278 86.4677 37.7799 89.2496 38.0696 89.792C38.1276 90.3494 40.8752 91.9285 40.8974 91.9328C41.9706 92.1553 42.5717 90.1311 43.2349 89.5387H43.2357ZM55.1719 57.3198C57.1381 57.42 58.2872 59.6331 59.0707 57.6862C59.2961 57.1273 59.9465 55.5947 59.822 55.0888C59.6202 54.2717 57.0444 53.6156 56.6236 53.5662C55.5497 53.441 55.8029 55.6605 55.0545 56.5521C54.5601 56.4533 52.3699 55.3221 51.4634 55.4144C51.1085 55.3564 49.8728 58.6464 50.3092 59.08C50.5282 59.5959 53.6185 60.2978 53.6414 60.2956C54.7325 60.1926 54.7125 58.0811 55.1726 57.3205L55.1719 57.3198ZM59.6553 29.2416C59.5537 23.7966 47.4672 29.7017 52.2647 33.9247C54.163 31.733 56.7202 30.1231 59.6553 29.2416ZM68.4747 29.296C68.5062 23.8502 80.6678 29.5994 75.9246 33.8839C73.9985 31.7166 71.4205 30.1396 68.4747 29.296Z" fill="#D9D9D9"/>
</g>
<defs>
<clipPath id="clip0_13_75">
<rect width="100" height="100" fill="white"/>
</clipPath>
</defs>
</svg>
