<svg xmlns="http://www.w3.org/2000/svg" width="318" height="232" viewBox="0 0 318 232" fill="none">
  <g filter="url(#filter0_d)">
    <path d="M318 232.272H316.784C316.796 231.773 316.805 231.273 316.805 230.772C316.805 191.284 278.535 159.272 231.327 159.272C231.128 159.272 230.929 159.275 230.729 159.276V159.272H43C19.2518 159.272 0 140.02 0 116.272C0 92.5237 19.2518 73.272 43 73.272H230.729V73.2681C230.929 73.2692 231.128 73.272 231.327 73.272C278.535 73.2719 316.805 41.2603 316.805 1.77197C316.805 1.27074 316.796 0.77075 316.784 0.271973H318V232.272Z" fill="#2563EB"/>
  </g>
  <defs>
    <filter id="filter0_d" x="0" y="0.271973" width="318" height="240" filterUnits="userSpaceOnUse" color-interpolation-filters="sRGB">
      <feFlood flood-opacity="0" result="BackgroundImageFix"/>
      <feColorMatrix in="SourceAlpha" type="matrix"
        values="0 0 0 0 0
                0 0 0 0 0
                0 0 0 0 0
                0 0 0 0.25 0" result="hardAlpha"/>
      <feOffset dy="4"/>
      <feGaussianBlur stdDeviation="2"/>
      <feComposite in2="hardAlpha" operator="out"/>
      <feBlend mode="normal" in2="BackgroundImageFix" result="effect1_dropShadow"/>
      <feBlend mode="normal" in="SourceGraphic" in2="effect1_dropShadow" result="shape"/>
    </filter>
  </defs>
</svg>