<svg xmlns="http://www.w3.org/2000/svg" width="318" height="232" viewBox="0 0 318 232" fill="none">
  <g filter="url(#filter0_d)">
    <path d="M0 232.272H1.21582C1.20355 231.773 1.19531 231.273 1.19531 230.772C1.19531 191.284 39.465 159.272 86.6729 159.272C86.8722 159.272 87.0715 159.275 87.2705 159.276V159.272H275C298.748 159.272 318 140.02 318 116.272C318 92.5237 298.748 73.272 275 73.272H87.2705V73.2681C87.0715 73.2692 86.8722 73.272 86.6729 73.272C39.465 73.2719 1.19531 41.2603 1.19531 1.77197C1.19531 1.27074 1.20355 0.77075 1.21582 0.271973H0V232.272Z" fill="#2563EB"/>
  </g>
  <defs>
    <filter id="filter0_d" x="-4" y="0.271973" width="326" height="240" filterUnits="userSpaceOnUse" color-interpolation-filters="sRGB">
      <feFlood flood-opacity="0" result="BackgroundImageFix"/>
      <feColorMatrix in="SourceAlpha" type="matrix"
        values="0 0 0 0 0 
                0 0 0 0 0 
                0 0 0 0 0 
                0 0 0 127 0" result="hardAlpha"/>
      <feOffset dy="4"/>
      <feGaussianBlur stdDeviation="2"/>
      <feComposite in2="hardAlpha" operator="out"/>
      <feColorMatrix type="matrix"
        values="0 0 0 0 0 
                0 0 0 0 0 
                0 0 0 0 0 
                0 0 0 0.25 0"/>
      <feBlend mode="normal" in2="BackgroundImageFix" result="effect1_dropShadow"/>
      <feBlend mode="normal" in="SourceGraphic" in2="effect1_dropShadow" result="shape"/>
    </filter>
  </defs>
</svg>