<?xml version='1.0' encoding='utf-8'?>
<svg xmlns="http://www.w3.org/2000/svg" version="1.0" width="1024.000000pt" height="1024.000000pt" viewBox="0 0 1024.000000 1024.000000" preserveAspectRatio="xMidYMid meet" filter="url(#dropShadow)">

<defs><filter id="dropShadow" x="0" y="0" width="200%" height="200%">
  <feOffset result="offOut" in="SourceAlpha" dx="0" dy="4" />
  <feGaussianBlur result="blurOut" in="offOut" stdDeviation="4" />
  <feColorMatrix result="shadow" in="blurOut" type="matrix" values="0 0 0 0 0             0 0 0 0 0             0 0 0 0 0             0 0 0 0.3 0" />
  <feBlend in="SourceGraphic" in2="shadow" mode="normal" />
</filter></defs><g transform="translate(0.000000,1024.000000) scale(0.100000,-0.100000)" fill="#000000" stroke="none">
<path d="M4820 8764 c-486 -43 -852 -140 -1282 -339 -527 -243 -992 -625 -1362 -1118 -392 -523 -651 -1206 -707 -1865 -15 -183 -6 -632 16 -792 89 -646 328 -1232 707 -1732 385 -509 921 -927 1505 -1177 430 -183 847 -274 1323 -288 897 -26 1755 270 2448 846 686 570 1140 1354 1277 2205 38 238 50 384 49 631 -1 586 -130 1129 -393 1652 -177 352 -396 649 -692 938 -574 560 -1294 908 -2109 1021 -110 15 -667 28 -780 18z m150 -1001 l0 -656 -262 6 c-363 9 -1003 58 -1024 79 -13 14 147 301 260 468 208 306 408 506 646 643 97 56 273 114 353 116 l27 1 0 -657z m490 620 c383 -127 763 -510 1055 -1066 l66 -126 -33 -5 c-155 -27 -696 -65 -1010 -73 l-268 -6 0 658 0 657 58 -7 c31 -4 91 -18 132 -32z m-1520 -190 c-162 -177 -393 -529 -538 -818 -36 -71 -67 -132 -68 -134 -7 -8 -493 85 -628 120 l-39 11 99 100 c257 259 563 478 895 638 99 47 310 137 328 140 1 0 -21 -26 -49 -57z m2632 -76 c184 -84 473 -268 671 -426 118 -94 347 -306 347 -320 0 -17 -492 -118 -647 -133 -31 -3 -32 -2 -106 147 -149 302 -331 582 -514 792 l-63 72 118 -49 c64 -26 152 -64 194 -83z m-3922 -1087 c501 -112 925 -176 1495 -225 217 -18 547 -35 708 -35 l117 0 0 -750 0 -750 -90 0 -90 0 0 -160 0 -160 90 0 90 0 0 -733 0 -734 -292 -6 c-392 -9 -806 -43 -1140 -92 -54 -8 -106 -15 -117 -15 -16 0 -25 24 -60 148 -62 221 -101 415 -147 725 l-6 37 -154 0 -153 0 4 -27 c3 -16 12 -82 20 -148 28 -208 103 -564 158 -747 l15 -46 -92 -17 c-196 -35 -306 -58 -440 -92 -76 -20 -141 -32 -145 -27 -61 85 -185 282 -240 383 -203 369 -330 797 -374 1254 l-13 137 193 0 193 0 0 160 0 160 -157 0 c-87 0 -174 3 -193 6 l-35 6 7 106 c36 544 223 1086 544 1580 40 61 75 112 76 112 2 0 105 -23 228 -50z m5247 -40 c131 -196 237 -400 326 -626 128 -322 196 -621 232 -1021 l7 -73 -576 0 -576 0 0 134 c0 156 -11 277 -46 506 -47 308 -124 662 -195 893 -17 55 -28 101 -26 103 3 3 63 14 133 25 166 26 279 49 489 103 94 24 173 40 176 37 4 -3 29 -40 56 -81z m-1143 -238 c121 -374 215 -906 242 -1364 l7 -118 -867 0 -866 0 2 753 3 752 290 6 c288 7 550 24 885 58 96 10 196 19 222 20 l47 1 35 -108z m1701 -1884 c-48 -589 -228 -1112 -550 -1593 -94 -141 -226 -309 -257 -329 -34 -21 -438 207 -581 327 l-28 23 57 69 c117 143 207 300 269 471 l37 101 127 -5 c125 -4 128 -4 156 21 30 25 30 26 33 150 3 120 3 125 -21 153 l-25 29 -346 3 -346 3 0 139 c0 76 -3 146 -6 155 -13 33 -59 45 -173 45 -60 0 -122 -5 -137 -10 -49 -19 -53 -34 -54 -187 l0 -142 -336 -3 -336 -3 -19 -24 c-16 -20 -19 -40 -19 -149 0 -174 -2 -172 176 -172 l132 0 17 -52 c50 -154 164 -351 303 -522 l56 -68 -29 -25 c-141 -115 -350 -245 -514 -318 -144 -64 -157 -81 -123 -151 34 -69 109 -163 137 -170 34 -8 83 9 210 76 186 96 288 163 540 354 8 6 41 -14 101 -61 124 -97 256 -184 379 -249 58 -31 107 -59 110 -64 3 -4 -21 -32 -54 -62 -201 -187 -524 -402 -777 -519 -46 -21 -87 -39 -90 -39 -2 0 19 30 49 68 62 77 121 162 115 166 -1 2 -74 20 -161 41 l-158 37 -42 -48 c-284 -328 -632 -538 -929 -561 l-78 -6 0 698 0 697 175 -7 175 -7 0 166 0 166 -175 0 -175 0 0 735 0 735 1596 0 1596 0 -7 -82z m-1402 -965 c-43 -105 -102 -200 -197 -322 l-50 -64 -29 34 c-101 117 -205 283 -231 367 l-7 22 265 0 265 0 -16 -37z m-2083 -1443 l0 -690 -44 0 c-54 0 -160 22 -236 48 -386 135 -745 468 -1020 946 -63 109 -144 275 -138 282 14 13 544 67 828 84 96 6 198 12 225 13 28 2 125 4 218 5 l167 2 0 -690z m-1727 450 c110 -267 309 -587 482 -777 31 -35 54 -63 50 -63 -3 0 -59 26 -123 59 -232 116 -432 245 -631 409 -111 92 -351 319 -351 333 0 5 25 16 56 25 74 21 444 93 467 91 13 -1 28 -25 50 -77z" />
<path d="M3275 6562 c-16 -10 -36 -30 -42 -43 -7 -13 -81 -211 -164 -439 -220 -605 -434 -1185 -469 -1271 -16 -41 -30 -82 -30 -92 0 -10 13 -32 29 -48 l29 -29 162 0 c91 0 170 4 181 10 26 14 38 41 99 218 l53 152 386 0 386 0 54 -162 c40 -119 61 -170 82 -190 l27 -28 172 0 c168 0 171 0 195 25 14 13 25 33 25 43 0 11 -40 127 -89 258 -83 222 -410 1102 -531 1433 -71 191 -53 181 -320 181 -181 0 -208 -2 -235 -18z m303 -617 c33 -99 90 -264 126 -367 l65 -188 -259 0 c-143 0 -260 3 -260 6 0 23 254 743 260 737 4 -4 34 -89 68 -188z" />
</g>
</svg>